<svg width="100" height="60" viewBox="0 0 100 60" fill="none" xmlns="http://www.w3.org/2000/svg">
<g clip-path="url(#clip0_104_117)">
<path d="M50 0C36.6667 0 28.3333 6.64935 25 19.9481C30 13.2987 35.8333 10.8052 42.5 12.4675C46.3037 13.416 49.0224 16.1683 52.0317 19.215C56.9339 24.178 62.6076 29.9221 75 29.9221C88.3333 29.9221 96.6667 23.2727 100 9.97403C95 16.6234 89.1667 19.1169 82.5 17.4545C78.6963 16.5061 75.9776 13.7538 72.9683 10.7071C68.0661 5.74412 62.3924 0 50 0ZM25 29.9221C11.6667 29.9221 3.33333 36.5714 0 49.8701C5 43.2208 10.8333 40.7273 17.5 42.3896C21.3037 43.3381 24.0224 46.0903 27.0317 49.137C31.9339 54.1 37.6076 59.8442 50 59.8442C63.3333 59.8442 71.6667 53.1948 75 39.8961C70 46.5455 64.1667 49.039 57.5 47.3766C53.6963 46.4282 50.9776 43.6759 47.9683 40.6292C43.0661 35.6662 37.3924 29.9221 25 29.9221Z" fill="url(#paint0_linear_104_117)"/>
</g>
<defs>
<linearGradient id="paint0_linear_104_117" x1="-711.111" y1="2949.12" x2="23778" y2="11465.2" gradientUnits="userSpaceOnUse">
<stop stop-color="#2298BD"/>
<stop offset="1" stop-color="#0ED7B5"/>
</linearGradient>
<clipPath id="clip0_104_117">
<rect width="100" height="60" fill="white"/>
</clipPath>
</defs>
</svg>
