<svg width="100" height="100" viewBox="0 0 100 100" fill="none" xmlns="http://www.w3.org/2000/svg">
<g clip-path="url(#clip0_104_97)">
<path d="M69.2894 68.8359C62.2581 83.2109 49.9456 92.8828 33.6565 96.0625C31.159 96.6744 28.5951 96.9736 26.0237 96.9531C16.6487 96.9531 8.05498 93.0469 3.88311 86.6484C-1.71846 78.125 -3.62471 60.0547 14.844 46.6875C15.219 48.7266 15.9847 51.5234 16.4925 53.1797C12.867 55.8732 9.89933 59.3537 7.81279 63.3594C4.37529 70.1094 4.75811 76.8516 8.82842 83.0859C11.6409 87.2891 16.094 89.8438 21.8206 90.625C28.9732 91.5303 36.2295 90.1638 42.5628 86.7188C52.4925 81.5 59.1097 75.2656 63.4378 66.7422C62.2139 65.4775 61.4896 63.8123 61.3987 62.0547C61.3333 60.1686 62.0188 58.3337 63.3048 56.9525C64.5908 55.5713 66.3722 54.7567 68.2581 54.6875H68.5237C70.3581 54.6783 72.1258 55.3746 73.461 56.6324C74.7963 57.8902 75.5969 59.6131 75.6973 61.4447C75.7976 63.2764 75.19 65.0765 74.0002 66.4726C72.8104 67.8687 71.1293 68.754 69.305 68.9453L69.2894 68.8359ZM91.6878 53.0547C101.227 63.8672 101.485 76.5938 97.7972 83.9766C94.3597 90.7188 85.2972 97.4688 73.1097 97.4688C67.4203 97.3527 61.8235 96.0068 56.7034 93.5234C58.4925 92.25 61.0315 90.2109 62.43 88.9375C66.3783 90.648 70.6274 91.5562 74.93 91.6094C82.8206 91.6094 88.7972 87.9219 92.3597 81.1797C94.6487 76.7266 94.7815 71.5078 92.6175 66.1641C89.9621 59.4405 85.2369 53.7358 79.1253 49.875C71.1071 44.4699 61.6546 41.5884 51.9847 41.6016H49.6956C49.1618 42.8346 48.2935 43.8935 47.1889 44.6584C46.0843 45.4234 44.7876 45.8637 43.4456 45.9297H43.2034C41.3473 45.9069 39.5732 45.1614 38.2579 43.8515C36.9426 42.5417 36.1897 40.7707 36.1592 38.9146C36.1287 37.0586 36.823 35.2638 38.0945 33.9115C39.366 32.5591 41.1147 31.7557 42.969 31.6719H43.2269C44.5191 31.6728 45.7861 32.0299 46.8886 32.7039C47.9912 33.3778 48.8867 34.3426 49.4769 35.4922H51.5159C67.7659 35.4922 82.0315 41.7266 91.6878 53.0547ZM27.0394 71.0234C26.9056 69.7261 27.2199 68.4221 27.93 67.3281C20.805 54.9844 16.9925 39.3359 22.844 23.0469C27.0394 10.8047 37.6019 2.53125 49.055 2.53125C61.2737 2.53125 74.0003 13.2266 75.5237 33.8359C73.6175 33.2031 70.8362 32.2734 69.1644 31.9297C68.7503 25.1875 63.055 8.39063 49.5628 8.64063C44.7269 8.77344 37.6019 11.0625 33.9378 15.7656C29.4055 21.3798 26.7689 28.2859 26.4065 35.4922C25.5477 45.3732 27.866 55.2704 33.0237 63.7422C33.3085 63.6382 33.612 63.5956 33.9144 63.6172H34.1644C36.054 63.583 37.8799 64.3009 39.2402 65.6129C40.6006 66.9249 41.3841 68.7236 41.4183 70.6133C41.4524 72.503 40.7346 74.3288 39.4225 75.6892C38.1105 77.0495 36.3118 77.833 34.4222 77.8672H34.1644C32.3208 77.8606 30.551 77.1429 29.2236 75.8636C27.8963 74.5842 27.1138 72.842 27.0394 71V71.0234Z" fill="#764ABC"/>
</g>
<defs>
<clipPath id="clip0_104_97">
<rect width="100" height="100" fill="white"/>
</clipPath>
</defs>
</svg>
